<svg xmlns="http://www.w3.org/2000/svg" viewBox="0 0 512 512">
  <defs>
    <linearGradient id="grad" x1="0%" y1="0%" x2="100%" y2="100%">
      <stop offset="0%" stop-color="#FFB347"/>
      <stop offset="100%" stop-color="#E65C00"/>
    </linearGradient>
  </defs>
  <!-- Background -->
  <rect width="512" height="512" rx="96" fill="url(#grad)"/>
  <!-- Inner highlight -->
  <ellipse cx="200" cy="155" rx="180" ry="115" fill="rgba(255,255,255,0.09)"/>
  <!-- Bone shaft -->
  <rect x="148" y="236" width="216" height="40" rx="20" fill="white"/>
  <!-- Bone knobs -->
  <circle cx="162" cy="224" r="38" fill="white"/>
  <circle cx="162" cy="288" r="38" fill="white"/>
  <circle cx="350" cy="224" r="38" fill="white"/>
  <circle cx="350" cy="288" r="38" fill="white"/>
  <!-- Sparkle top-right -->
  <polygon points="426,70 432,93 455,96 432,99 426,122 420,99 397,96 420,93" fill="white" opacity="0.9"/>
  <!-- Sparkle top-left -->
  <polygon points="90,100 95,118 113,120 95,122 90,140 85,122 67,120 85,118" fill="white" opacity="0.7"/>
  <!-- Sparkle bottom-right -->
  <polygon points="430,385 434,398 447,400 434,402 430,415 426,402 413,400 426,398" fill="white" opacity="0.55"/>
  <!-- Dots -->
  <circle cx="72" cy="390" r="6" fill="white" opacity="0.5"/>
  <circle cx="90" cy="408" r="4" fill="white" opacity="0.35"/>
  <circle cx="452" cy="410" r="4" fill="white" opacity="0.5"/>
</svg>
